<svg xmlns="http://www.w3.org/2000/svg" width="1350" height="920" viewBox="0 0 1350 920"><defs><linearGradient id="bg" x2="1" y2="1"><stop stop-color="#254e45"/><stop offset="1" stop-color="#111519"/></linearGradient></defs><rect width="1350" height="920" fill="url(#bg)"/><circle cx="1110" cy="190" r="260" fill="#84b09b" opacity=".18"/><circle cx="260" cy="750" r="250" fill="#84b09b" opacity=".12"/><rect x="95" y="110" width="1160" height="650" rx="24" fill="#111" stroke="#84b09b" stroke-width="2"/><rect x="125" y="140" width="1100" height="520" rx="12" fill="#254e45"/><path d="M125 520 350 300 560 470 810 250 1225 535V660H125Z" fill="#84b09b" opacity=".4"/><circle cx="1060" cy="270" r="80" fill="#84b09b" opacity=".4"/><circle cx="675" cy="390" r="80" fill="#000" opacity=".6"/><path d="m655 350 65 40-65 40Z" fill="#fff"/><text x="155" y="200" fill="#fff" font-family="Arial,sans-serif" font-size="24" letter-spacing="4">VIDEO EDITING</text><text x="155" y="614" fill="#fff" font-family="Arial,sans-serif" font-size="58" font-weight="700">PROJECT 01</text><path d="M150 710H1120" stroke="#555" stroke-width="4"/><path d="M150 710H470" stroke="#84b09b" stroke-width="4"/><circle cx="470" cy="710" r="8" fill="#fff"/><text x="100" y="850" fill="#aaa" font-family="Arial,sans-serif" font-size="20" letter-spacing="3">TEMPORARY IMAGE / 01</text></svg>